<svg xmlns="http://www.w3.org/2000/svg" width="31.401" height="31.401" viewBox="0 0 31.401 31.401">
  <g id="_1904674_accept_approved_check_checked_confirm_icon" data-name="1904674_accept_approved_check_checked_confirm_icon" opacity="0.9">
    <g id="Path_34" data-name="Path 34" fill="#fff">
      <path d="M15.7,0A15.7,15.7,0,1,0,31.4,15.7,15.7,15.7,0,0,0,15.7,0Zm0,29.929A14.229,14.229,0,1,1,29.929,15.7,14.229,14.229,0,0,1,15.7,29.929Z" stroke="none"/>
      <path d="M 15.700514793396 -5.7220458984375e-06 C 24.36774444580078 0.009464263916015625 31.39156532287598 7.033285140991211 31.40102386474609 15.700514793396 C 31.40102386474609 24.37166595458984 24.37166595458984 31.40102386474609 15.700514793396 31.40102386474609 C 7.029354095458984 31.40102386474609 -5.7220458984375e-06 24.37166595458984 -5.7220458984375e-06 15.700514793396 C -5.7220458984375e-06 7.029354095458984 7.029354095458984 -5.7220458984375e-06 15.700514793396 -5.7220458984375e-06 Z M 15.700514793396 29.92910385131836 C 23.55482482910156 29.91964530944824 29.91964530944824 23.55482482910156 29.92910385131836 15.700514793396 C 29.92910385131836 7.84228515625 23.55874443054199 1.471925735473633 15.700514793396 1.471925735473633 C 15.70003509521484 1.471925735473633 15.70097637176514 1.471925735473633 15.70049667358398 1.471925735473633 C 7.842927932739258 1.471925735473633 1.471925735473633 7.842754364013672 1.471925735473633 15.700514793396 C 1.471914291381836 23.55874443054199 7.842275619506836 29.92910385131836 15.700514793396 29.92910385131836 Z" stroke="none" fill="#fff"/>
    </g>
    <g id="Path_35" data-name="Path 35" transform="translate(-26.447 -31.31)" fill="#fff">
      <path d="M48.011,41.7l-9.195,9.043L36.3,48.1a.736.736,0,0,0-1.067,1.013l3.03,3.189a.736.736,0,0,0,.52.228H38.8a.736.736,0,0,0,.515-.211l9.727-9.568a.736.736,0,1,0-1.033-1.05Z" stroke="none"/>
      <path d="M 48.52247619628906 41.48822402954102 C 48.71296310424805 41.48823165893555 48.90336227416992 41.56168746948242 49.0474967956543 41.70821762084961 C 49.33270645141602 41.9981575012207 49.32886505126953 42.46439743041992 49.03891754150391 42.74960708618164 L 39.31195449829102 52.31710815429688 C 39.17447662353516 52.45216751098633 38.98950576782227 52.52792739868164 38.79678726196289 52.528076171875 L 38.78452682495117 52.528076171875 C 38.58762741088867 52.52467727661133 38.40029525756836 52.4425048828125 38.26443481445313 52.29993438720703 L 35.23473739624023 49.11076736450195 C 34.96662521362305 48.81447601318359 34.98392486572266 48.35837554931641 35.27371597290039 48.08324813842773 C 35.41593551635742 47.94821548461914 35.59822082519531 47.88100814819336 35.78039169311523 47.88100814819336 C 35.96940231323242 47.88100814819336 36.15828323364258 47.95342636108398 36.30187606811523 48.09758758544922 L 38.8164176940918 50.74460601806641 L 48.01102447509766 41.70208740234375 L 48.00610733032227 41.69963455200195 C 48.1495246887207 41.55856704711914 48.33604049682617 41.48821640014648 48.52247619628906 41.48822402954102 Z" stroke="none" fill="#fff"/>
    </g>
  </g>
</svg>
