<svg xmlns="http://www.w3.org/2000/svg" xmlns:xlink="http://www.w3.org/1999/xlink" width="40.755" height="55.014" viewBox="0 0 40.755 55.014">
  <defs>
    <filter id="Path_6" x="0" y="0" width="40.755" height="37.411" filterUnits="userSpaceOnUse">
      <feOffset dy="3" input="SourceAlpha"/>
      <feGaussianBlur stdDeviation="3" result="blur"/>
      <feFlood flood-opacity="0.161"/>
      <feComposite operator="in" in2="blur"/>
      <feComposite in="SourceGraphic"/>
    </filter>
    <filter id="Path_8" x="0" y="17.604" width="40.755" height="37.41" filterUnits="userSpaceOnUse">
      <feOffset dy="3" input="SourceAlpha"/>
      <feGaussianBlur stdDeviation="3" result="blur-2"/>
      <feFlood flood-opacity="0.161"/>
      <feComposite operator="in" in2="blur-2"/>
      <feComposite in="SourceGraphic"/>
    </filter>
  </defs>
  <g id="ARROW_left" transform="translate(352.753 501.353) rotate(180)" opacity="0.5">
    <g id="Group_1" data-name="Group 1" transform="translate(320.998 494.283) rotate(-40)">
      <g transform="matrix(-0.77, -0.64, 0.64, -0.77, 19.78, 25.83)" filter="url(#Path_6)">
        <path id="Path_6-2" data-name="Path 6" d="M345.992,1485.906H318.759a.7.7,0,0,1,0-1.4h27.232a.7.7,0,0,1,0,1.4Z" transform="translate(1229.67 939.79) rotate(140)" fill="#fff"/>
      </g>
    </g>
    <g id="Group_3" data-name="Group 3" transform="translate(321.896 458.338) rotate(40)">
      <g transform="matrix(-0.77, 0.64, -0.64, -0.77, 51.29, 13.12)" filter="url(#Path_8)">
        <path id="Path_8-2" data-name="Path 8" d="M345.992,468.742H318.759a.7.7,0,0,1,0-1.4h27.232a.7.7,0,0,1,0,1.4Z" transform="translate(-25.86 605.5) rotate(-140)" fill="#fff"/>
      </g>
    </g>
  </g>
</svg>
