<svg xmlns="http://www.w3.org/2000/svg" width="23.633" height="23.633" viewBox="0 0 23.633 23.633">
  <path id="_5279111_network_fb_social_media_facebook_facebook_logo_icon" data-name="5279111_network_fb_social media_facebook_facebook logo_icon" d="M11.771,23.633h0Zm.083,0h0Zm-.119,0h0Zm.158,0h0Zm-.192,0h0Zm.231,0h0Zm.038,0h0Zm-.313,0h0Zm.351,0h0Zm-.388,0h0Zm.426,0h0Zm-.461,0h0Zm-.043,0h0Zm.542,0h0Zm-.58,0h0Zm.618,0h0Zm.038,0h0Zm-.691,0h0Zm-.033,0h0Zm.762,0h0Zm.038,0h0Zm-.848,0h0Zm-.035,0h0Zm.92,0h0Zm-.954,0h0Zm.992,0h0Zm-1.04,0h0Zm1.078,0h0Zm-1.112,0h0Zm1.149,0h0Zm-1.183,0h0Zm1.221,0h0Zm.038,0h0Zm-1.289,0h0Zm1.327,0h0Zm-1.378,0h0Zm-.033,0h0Zm1.449,0h0Zm-1.48,0h0Zm1.518,0h0Zm.038,0h0Zm-1.6,0h0Zm-.033,0h0Zm1.675,0h0Zm-1.708,0h0Zm1.746,0h0Zm-1.79,0h0Zm1.828,0h0Zm.037,0h0Zm-1.9,0h0Zm-.033,0h0Zm1.971,0h0Zm-2.007,0h0Zm2.045,0h0Zm.037,0h0Zm-2.122,0h0Zm-.035,0h0Zm2.194,0h0ZM9.97,23.489a11.816,11.816,0,1,1,3.693,0V15.232h2.753l.524-3.416H13.663V9.6a1.708,1.708,0,0,1,1.926-1.845h1.49V4.847a18.171,18.171,0,0,0-2.645-.231c-2.7,0-4.463,1.636-4.463,4.6v2.6h-3v3.416h3Z" fill="rgba(255,255,255,0.35)" fill-rule="evenodd" opacity="0.5"/>
</svg>
