<svg xmlns="http://www.w3.org/2000/svg" width="22.601" height="29.832" viewBox="0 0 22.601 29.832">
  <g id="_3450006_garbage_recycle_recycle_bin_remove_trash_icon" data-name="3450006_garbage_recycle_recycle bin_remove_trash_icon" opacity="0.8" style="isolation: isolate">
    <path id="Path_11" data-name="Path 11" d="M61.162,8.39,60.91,8.14a10.8,10.8,0,0,1-.738-.833,4.358,4.358,0,0,1-.591-2.019L59.54,4.67l.615.167A3.125,3.125,0,0,1,61.832,6.2a1.493,1.493,0,0,1,.256,1.219,1.366,1.366,0,0,1-.628.806Zm-.857-2.733a3.074,3.074,0,0,0,.417,1.233c.188.246.417.492.553.639a.618.618,0,0,0,.171-.287.9.9,0,0,0-.181-.683,2.784,2.784,0,0,0-.96-.915Z" transform="translate(-44.839 -4.67)" fill="#fff"/>
    <path id="Path_12" data-name="Path 12" d="M66.237,11.478l-.2-.263a1.322,1.322,0,0,1-.2-1.141,1.955,1.955,0,0,1,1.445-1.12,6.7,6.7,0,0,1,3.416-.212l.857.215-.57.581A6.958,6.958,0,0,1,68.4,11.116c-.823.2-1.773.342-1.783.342ZM69.481,9.3a6.9,6.9,0,0,0-2.005.3c-.56.174-.9.4-.991.683a.618.618,0,0,0,.055.471c.181-.027.991-.143,1.68-.307a5.465,5.465,0,0,0,1.916-1.1,5.615,5.615,0,0,0-.656-.038Z" transform="translate(-48.95 -7.266)" fill="#fff"/>
    <path id="Path_13" data-name="Path 13" d="M42.457,44.108l-.977-1.684-.973,1.684L38,42.663l1.622-2.8a1.325,1.325,0,0,1,1.144-.659h1.414a1.325,1.325,0,0,1,1.144.659l1.622,2.8ZM38.939,42.4l1.318.762,1.223-2.118,1.226,2.118,1.315-.762-1.281-2.213a.635.635,0,0,0-.553-.318H40.774a.635.635,0,0,0-.553.318Z" transform="translate(-30.656 -27.406)" fill="#fff"/>
    <path id="Path_14" data-name="Path 14" d="M47.535,43.029H47.5a.342.342,0,0,1-.3-.372,2.51,2.51,0,0,1,1.786-2,.342.342,0,1,1,.219.649,1.841,1.841,0,0,0-1.325,1.421A.342.342,0,0,1,47.535,43.029Z" transform="translate(-36.711 -28.352)" fill="#fff"/>
    <path id="Path_15" data-name="Path 15" d="M50.686,48.883l-3.276-.6,1.226-.581,1.879-1.083,1.168-.782Zm-1.168-.905.71.126.212-.656Z" transform="translate(-36.852 -31.778)" fill="#fff"/>
    <path id="Path_16" data-name="Path 16" d="M53.745,59.315H50.5V56.432h1.947l-.97-1.687,2.507-1.435L55.6,56.121a1.315,1.315,0,0,1,0,1.322l-.717,1.226A1.325,1.325,0,0,1,53.745,59.315Zm-2.565-.683h2.562a.639.639,0,0,0,.547-.3L55,57.1a.646.646,0,0,0,0-.639l-1.257-2.237-1.322.755L53.642,57.1H51.193Z" transform="translate(-38.887 -36.696)" fill="#fff"/>
    <path id="Path_17" data-name="Path 17" d="M57.946,65.3h-.068a.342.342,0,0,1-.273-.41,1.855,1.855,0,0,0-.567-1.862.342.342,0,1,1,.4-.55,2.517,2.517,0,0,1,.847,2.545A.342.342,0,0,1,57.946,65.3Z" transform="translate(-43.087 -42.68)" fill="#fff"/>
    <path id="Path_18" data-name="Path 18" d="M48.6,64.426,46.46,62.035l2.155-2.545-.1,1.366v2.166Zm-1.233-2.391.461.512V61.488Z" transform="translate(-36.227 -40.765)" fill="#fff"/>
    <path id="Path_19" data-name="Path 19" d="M35.359,59.372H32.114a1.322,1.322,0,0,1-1.141-.683l-.7-1.23a1.325,1.325,0,0,1,0-1.322l1.633-2.8,2.5,1.452-.98,1.681h1.947Zm-3.2-5.1-1.291,2.21a.646.646,0,0,0,0,.639l.683,1.226a.652.652,0,0,0,.553.321h2.562v-1.52H32.213l1.264-2.111Z" transform="translate(-25.45 -36.716)" fill="#fff"/>
    <path id="Path_20" data-name="Path 20" d="M32.347,62.349a2.664,2.664,0,0,1-1.78-.71.341.341,0,0,1,.451-.512,1.865,1.865,0,0,0,1.9.444.342.342,0,1,1,.277.622A2.162,2.162,0,0,1,32.347,62.349Z" transform="translate(-25.686 -41.787)" fill="#fff"/>
    <path id="Path_21" data-name="Path 21" d="M35.863,54.956l-1.117-.762L32.87,53.108l-1.26-.628,3.129-.659Zm-2.241-2.2.919.536-.243-.683Z" transform="translate(-26.449 -35.715)" fill="#fff"/>
    <path id="Path_22" data-name="Path 22" d="M37.462,26.813h-19.4a.758.758,0,0,1-.755-.755V25.1a.758.758,0,0,1,.755-.755h19.4a.758.758,0,0,1,.751.755v.953a.755.755,0,0,1-.751.755Zm-19.4-1.78a.075.075,0,0,0-.072.072v.953a.072.072,0,0,0,.072.072h19.4a.068.068,0,0,0,.068-.072V25.1a.072.072,0,0,0-.068-.072Z" transform="translate(-17.033 -17.628)" fill="#fff"/>
    <path id="Path_23" data-name="Path 23" d="M40.12,21.609H23.1V20.345a1.2,1.2,0,0,1,1.2-1.2H38.925a1.2,1.2,0,0,1,1.2,1.2Zm-16.337-.683H39.437v-.581a.512.512,0,0,0-.512-.512H24.3a.512.512,0,0,0-.512.512Z" transform="translate(-20.846 -14.204)" fill="#fff"/>
    <path id="Path_24" data-name="Path 24" d="M41.68,16.442H28V15.435A1.452,1.452,0,0,1,29.445,14H40.228a1.452,1.452,0,0,1,1.452,1.452Zm-13-.683H41v-.324a.769.769,0,0,0-.769-.751H29.445a.769.769,0,0,0-.762.751Z" transform="translate(-24.072 -10.813)" fill="#fff"/>
    <path id="Path_25" data-name="Path 25" d="M67.723,78.131h-.089A1.144,1.144,0,0,1,66.49,76.99V74.671a1.144,1.144,0,0,1,1.144-1.141h.089a1.144,1.144,0,0,1,1.144,1.141v2.312a1.144,1.144,0,0,1-1.144,1.148Zm-.089-3.911a.461.461,0,0,0-.461.458V76.99a.461.461,0,0,0,.461.458h.089a.458.458,0,0,0,.461-.458V74.671a.458.458,0,0,0-.461-.458Z" transform="translate(-49.415 -50.01)" fill="#fff"/>
    <path id="Path_26" data-name="Path 26" d="M23.407,78.131h-.092A1.151,1.151,0,0,1,22.16,76.98v-2.3a1.151,1.151,0,0,1,1.155-1.151h.092a1.151,1.151,0,0,1,1.151,1.151v2.292a1.151,1.151,0,0,1-1.151,1.158Zm-.092-3.911a.471.471,0,0,0-.471.468V76.98a.468.468,0,0,0,.471.468h.092a.468.468,0,0,0,.468-.468v-2.3a.471.471,0,0,0-.468-.468Z" transform="translate(-20.227 -50.01)" fill="#fff"/>
    <path id="Path_27" data-name="Path 27" d="M36.229,50.887H26.2a1.67,1.67,0,0,1-1.752-1.414L22.6,29.56H39.815L37.967,49.473a1.67,1.67,0,0,1-1.739,1.414ZM23.348,30.243l1.78,19.169A1.025,1.025,0,0,0,26.2,50.2H36.229a1.025,1.025,0,0,0,1.069-.792l1.78-19.169Z" transform="translate(-20.516 -21.058)" fill="#fff"/>
    <path id="Path_28" data-name="Path 28" d="M44.48,90.683H28.922a.342.342,0,0,1,0-.683H44.48a.342.342,0,0,1,0,.683Z" transform="translate(-24.454 -60.854)" fill="#fff"/>
    <path id="Path_29" data-name="Path 29" d="M23.188,90.683H21.552a.342.342,0,0,1,0-.683h1.636a.342.342,0,1,1,0,.683Z" transform="translate(-19.601 -60.854)" fill="#fff"/>
    <path id="Path_30" data-name="Path 30" d="M17.3,90.683h-.454a.342.342,0,0,1,0-.683H17.3a.342.342,0,1,1,0,.683Z" transform="translate(-16.5 -60.854)" fill="#fff"/>
  </g>
</svg>
