<svg xmlns="http://www.w3.org/2000/svg" width="23.633" height="23.633" viewBox="0 0 23.633 23.633">
  <path id="_5279112_camera_instagram_social_media_instagram_logo_icon" data-name="5279112_camera_instagram_social media_instagram logo_icon" d="M11.816,0A11.816,11.816,0,1,1,0,11.816,11.822,11.822,0,0,1,11.816,0Zm0,4.431c-2.006,0-2.257.008-3.045.044a5.421,5.421,0,0,0-1.793.343,3.777,3.777,0,0,0-2.16,2.16,5.422,5.422,0,0,0-.343,1.793c-.036.788-.044,1.039-.044,3.045s.008,2.257.044,3.045a5.422,5.422,0,0,0,.343,1.793,3.777,3.777,0,0,0,2.16,2.16,5.423,5.423,0,0,0,1.793.343c.788.036,1.039.044,3.045.044s2.257-.008,3.045-.044a5.422,5.422,0,0,0,1.793-.343,3.776,3.776,0,0,0,2.16-2.16,5.422,5.422,0,0,0,.343-1.793c.036-.788.044-1.039.044-3.045s-.008-2.257-.044-3.045a5.422,5.422,0,0,0-.343-1.793,3.777,3.777,0,0,0-2.16-2.16,5.421,5.421,0,0,0-1.793-.343C14.074,4.44,13.822,4.431,11.816,4.431Zm0,1.331c1.972,0,2.206.008,2.984.043a4.087,4.087,0,0,1,1.371.254,2.446,2.446,0,0,1,1.4,1.4,4.085,4.085,0,0,1,.254,1.371c.036.779.043,1.012.043,2.984s-.008,2.206-.043,2.984a4.085,4.085,0,0,1-.254,1.371,2.446,2.446,0,0,1-1.4,1.4,4.085,4.085,0,0,1-1.371.254c-.779.036-1.012.043-2.984.043s-2.206-.008-2.984-.043a4.085,4.085,0,0,1-1.371-.254,2.446,2.446,0,0,1-1.4-1.4A4.086,4.086,0,0,1,5.8,14.8c-.036-.779-.043-1.012-.043-2.984s.007-2.206.043-2.984a4.086,4.086,0,0,1,.254-1.371,2.446,2.446,0,0,1,1.4-1.4A4.087,4.087,0,0,1,8.832,5.8c.779-.036,1.012-.043,2.984-.043Zm0,2.262a3.792,3.792,0,1,0,3.792,3.792,3.792,3.792,0,0,0-3.792-3.792Zm0,6.254a2.462,2.462,0,1,1,2.462-2.462A2.462,2.462,0,0,1,11.816,14.278Zm4.829-6.4a.886.886,0,1,1-.886-.886A.886.886,0,0,1,16.645,7.874Z" fill="rgba(255,255,255,0.35)" fill-rule="evenodd" opacity="0.5"/>
</svg>
