<?xml version="1.0" encoding="utf-8"?>
<!-- Generator: Adobe Illustrator 25.0.1, SVG Export Plug-In . SVG Version: 6.00 Build 0)  -->
<svg version="1.1" xmlns="http://www.w3.org/2000/svg" xmlns:xlink="http://www.w3.org/1999/xlink" x="0px" y="0px"
	 viewBox="0 0 100 100" style="enable-background:new 0 0 100 100;" xml:space="preserve">
<style type="text/css">
	.st0{fill:#FFFFFF;stroke:#000000;stroke-width:0.25;stroke-miterlimit:10;}
	.st1{fill:none;stroke:#000000;stroke-width:0.75;stroke-miterlimit:10;}
</style>
<g id="Layer_1">
	<path class="st0" d="M-9.75,54.18"/>
</g>
<g id="Layer_2">
	<path class="st1" d="M75.91,58.37c11.43,1.4,18.87,3.7,18.87,6.29c0,4.27-20.15,7.73-45.01,7.73S4.78,68.93,4.78,64.66
		c0-2.77,8.5-5.2,21.28-6.57"/>
</g>
<g id="Layer_3">
	<line class="st1" x1="24.15" y1="64.66" x2="26.05" y2="58.1"/>
	<polyline class="st1" points="76.14,58.4 51.97,16.94 45.72,49.61 45.72,49.61 34.78,27.92 26.05,58.1 	"/>
	<line class="st1" x1="79.79" y1="64.66" x2="76.14" y2="58.4"/>
	<path class="st1" d="M41.56,40.99c-0.46,1.01-1.27,2.41-2.59,2.59c-1.75,0.25-2.84-1.86-4.85-1.87c-1.01,0-2.52,0.52-4.39,3.3"/>
	<path class="st1" d="M61.01,32.45c-1.88,4.36-3.44,5.29-4.53,5.3c-1.57,0.01-2.25-1.87-4.04-1.99c-2-0.13-3.32,0.7-4.56,2.57"/>
	<ellipse class="st1" cx="49.78" cy="52.92" rx="47.17" ry="43.6"/>
</g>
<g id="Layer_5">
</g>
<g id="Layer_4">
</g>
</svg>
