<svg xmlns="http://www.w3.org/2000/svg" width="23.633" height="23.633" viewBox="0 0 23.633 23.633">
  <path id="_5279123_tweet_twitter_twitter_logo_icon" data-name="5279123_tweet_twitter_twitter logo_icon" d="M11.816,0A11.816,11.816,0,1,1,0,11.816,11.822,11.822,0,0,1,11.816,0ZM9.735,18.1a8.033,8.033,0,0,0,8.088-8.088c0-.124,0-.248-.006-.366a5.823,5.823,0,0,0,1.421-1.474,5.769,5.769,0,0,1-1.633.448,2.841,2.841,0,0,0,1.25-1.574,5.757,5.757,0,0,1-1.8.69,2.844,2.844,0,0,0-4.916,1.945,2.606,2.606,0,0,0,.077.648A8.064,8.064,0,0,1,6.351,7.36a2.841,2.841,0,0,0,.884,3.79A2.792,2.792,0,0,1,5.951,10.8v.035a2.846,2.846,0,0,0,2.281,2.788,2.835,2.835,0,0,1-.749.1,2.711,2.711,0,0,1-.536-.053A2.838,2.838,0,0,0,9.6,15.643a5.714,5.714,0,0,1-3.531,1.214,5.173,5.173,0,0,1-.678-.041A7.92,7.92,0,0,0,9.735,18.1Z" fill="rgba(255,255,255,0.35)" fill-rule="evenodd"/>
</svg>
