<svg xmlns="http://www.w3.org/2000/svg" width="44.701" height="27.778" viewBox="0 0 44.701 27.778">
  <g id="_213753_american_express_amex_card_cash_checkout_icon" data-name="213753_american express_amex_card_cash_checkout_icon" transform="translate(0)" opacity="0.98">
    <g id="Group_21" data-name="Group 21" transform="translate(0 0)">
      <path id="Path_96" data-name="Path 96" d="M42.935,98.635a2.2,2.2,0,0,1,2.194,2.194v22.517a2.2,2.2,0,0,1-2.194,2.194H3.494A2.2,2.2,0,0,1,1.3,123.345V100.828a2.2,2.2,0,0,1,2.194-2.194h39.44m0-.437H3.494a2.63,2.63,0,0,0-2.63,2.63v22.517a2.63,2.63,0,0,0,2.63,2.63h39.44a2.63,2.63,0,0,0,2.63-2.63V100.828a2.63,2.63,0,0,0-2.63-2.63Z" transform="translate(-0.864 -98.198)" fill="#fff"/>
    </g>
    <g id="Group_34" data-name="Group 34" transform="translate(3.601 7.892)">
      <g id="Group_27" data-name="Group 27">
        <g id="Group_22" data-name="Group 22" transform="translate(16.285 0.032)">
          <path id="Path_97" data-name="Path 97" d="M231.683,193.5v-.883a.744.744,0,0,0-.768-.691h-1.122V193.5h-1.152v-4.54h2.8a1.261,1.261,0,0,1,1.46,1.329,1.157,1.157,0,0,1-.645,1.06,1.113,1.113,0,0,1,.56,1.03V193.5h-1.129m-1.891-2.642h1.191c.346,0,.63-.192.63-.43s-.284-.43-.63-.43h-1.191v.861h0" transform="translate(-228.641 -188.959)" fill="#fff"/>
        </g>
        <g id="Group_23" data-name="Group 23" transform="translate(22.57)">
          <path id="Path_98" data-name="Path 98" d="M310.972,193.166l-1.828-3.034v3.034h-2.258l-.408-.952h-2.1l-.4.952h-1.805a1.968,1.968,0,0,1-1.551-2.143c0-2.52,1.76-2.42,1.82-2.435l1.421.039v1.022l-1.167.015s-.761,0-.854.991a3.077,3.077,0,0,0-.015.316.966.966,0,0,0,1.375,1.044l1.429-3.387h1.613l1.728,4.117v-4.117H309.6l1.805,2.988v-2.988h1.16v4.54h-1.59m-6.107-2.112h1.121l-.553-1.352-.568,1.352h0" transform="translate(-300.617 -188.588)" fill="#fff"/>
        </g>
        <g id="Group_24" data-name="Group 24" transform="translate(0 0.039)">
          <path id="Path_99" data-name="Path 99" d="M52.4,193.572v-3.134l-1.444,3.134h-.945l-1.452-3.119v3.119H46.285l-.4-.952h-2.1l-.407.952h-1.26l1.913-4.54h1.621L47.4,193.2v-4.171H49.22l1.268,2.819,1.26-2.819h1.82v4.54H52.4m-8.127-2.112h1.121l-.561-1.352-.561,1.352h0" transform="translate(-42.114 -189.032)" fill="#fff"/>
        </g>
        <g id="Group_25" data-name="Group 25" transform="translate(12.091 0.039)">
          <path id="Path_100" data-name="Path 100" d="M180.6,193.572v-4.539h3.6v1.06H181.76v.7h2.374v1.029H181.76v.768H184.2v.983h-3.6" transform="translate(-180.6 -189.033)" fill="#fff"/>
        </g>
        <g id="Group_26" data-name="Group 26" transform="translate(21.018 0.039)">
          <path id="Path_101" data-name="Path 101" d="M282.85,193.588v-4.555h1.159v4.555H282.85" transform="translate(-282.85 -189.033)" fill="#fff"/>
        </g>
      </g>
      <g id="Group_33" data-name="Group 33" transform="translate(8.35 7.716)">
        <g id="Group_28" data-name="Group 28" transform="translate(12.383 0.014)">
          <path id="Path_102" data-name="Path 102" d="M282.627,281.664v-.884a.744.744,0,0,0-.768-.691h-1.121v1.575h-1.153v-4.54h2.8a1.261,1.261,0,0,1,1.46,1.329,1.159,1.159,0,0,1-.645,1.06,1.112,1.112,0,0,1,.554,1.029v1.122h-1.122m-1.89-2.642h1.191c.345,0,.629-.192.629-.43s-.284-.43-.629-.43h-1.191v.86h0" transform="translate(-279.584 -277.118)" fill="#fff"/>
        </g>
        <g id="Group_29" data-name="Group 29">
          <path id="Path_103" data-name="Path 103" d="M145.5,281.512h-1.007l-1.22-1.345-1.23,1.345h-4.286v-4.548h4.195l1.322,1.444,1.329-1.437h.883v-.008h2.8a1.273,1.273,0,0,1,1.46,1.336c0,1.337-.484,1.752-1.975,1.752h-1.129v1.46H145.5m-1.444-2.235,1.429,1.582V277.7l-1.429,1.576h0m-5.14,1.252h2.427l1.137-1.252-1.137-1.245h-2.427v.7h2.366v1.03h-2.366v.769h0m7.72-1.661h1.19c.346,0,.63-.192.63-.43s-.284-.43-.63-.43h-1.19v.86h0" transform="translate(-137.752 -276.96)" fill="#fff"/>
        </g>
        <g id="Group_30" data-name="Group 30" transform="translate(21.111 0.012)">
          <path id="Path_104" data-name="Path 104" d="M381.718,281.628h-2.051v-1.045h1.8s.645.077.645-.36c0-.409-.975-.377-.975-.377s-1.59.138-1.59-1.352a1.329,1.329,0,0,1,1.436-1.4h2.213v1.06h-1.782s-.615-.123-.615.323c0,.375.837.322.837.322s1.76-.13,1.76,1.237a1.44,1.44,0,0,1-1.535,1.6c-.087,0-.139-.006-.139-.006" transform="translate(-379.544 -277.095)" fill="#fff"/>
        </g>
        <g id="Group_31" data-name="Group 31" transform="translate(17.116 0.02)">
          <path id="Path_105" data-name="Path 105" d="M333.794,281.723v-4.532h3.594v1.052h-2.435v.7h2.374v1.03h-2.374v.769h2.435v.983h-3.594" transform="translate(-333.794 -277.191)" fill="#fff"/>
        </g>
        <g id="Group_32" data-name="Group 32" transform="translate(25.174 0.012)">
          <path id="Path_106" data-name="Path 106" d="M428.26,281.628h-2.051v-1.045H428s.653.077.653-.36c0-.409-.975-.377-.975-.377s-1.591.138-1.591-1.352a1.329,1.329,0,0,1,1.436-1.4h2.206v1.06h-1.775s-.615-.123-.615.323c0,.375.838.322.838.322s1.759-.13,1.759,1.237a1.44,1.44,0,0,1-1.535,1.6c-.087,0-.139-.006-.139-.006" transform="translate(-426.086 -277.095)" fill="#fff"/>
        </g>
      </g>
    </g>
  </g>
</svg>
