<svg xmlns="http://www.w3.org/2000/svg" width="44.701" height="27.778" viewBox="0 0 44.701 27.778">
  <g id="_213750_bank_card_checkout_online_shopping_payment_method_icon" data-name="213750_bank_card_checkout_online shopping_payment method_icon" transform="translate(0)" opacity="0.98">
    <g id="Group_17" data-name="Group 17" transform="translate(0 0)">
      <path id="Path_83" data-name="Path 83" d="M42.854,98.635a2.2,2.2,0,0,1,2.194,2.194v22.517a2.2,2.2,0,0,1-2.194,2.194H3.413a2.2,2.2,0,0,1-2.194-2.194V100.828a2.2,2.2,0,0,1,2.194-2.194h39.44m0-.437H3.413a2.63,2.63,0,0,0-2.63,2.63v22.517a2.63,2.63,0,0,0,2.63,2.63h39.44a2.63,2.63,0,0,0,2.63-2.63V100.828a2.63,2.63,0,0,0-2.63-2.63Z" transform="translate(-0.783 -98.198)" fill="#fff"/>
    </g>
    <g id="Group_20" data-name="Group 20" transform="translate(3.404 7.396)">
      <g id="Group_18" data-name="Group 18" transform="translate(0.544 7.787)">
        <path id="Path_84" data-name="Path 84" d="M47.165,278.734v-3.98H46v-1.232h3.755v1.232H48.586v3.98Z" transform="translate(-45.998 -273.398)" fill="#fff"/>
        <path id="Path_85" data-name="Path 85" d="M96.961,278.734v-5.211h1.484a6.192,6.192,0,0,1,1.216.08,1.554,1.554,0,0,1,.593.269,1.407,1.407,0,0,1,.433.545,1.735,1.735,0,0,1,.151.73,1.549,1.549,0,0,1-.3.984,1.45,1.45,0,0,1-.867.5l1.42,2.1H99.488l-1.2-2.04v2.04Zm1.331-2.748h.263a1.139,1.139,0,0,0,.671-.157.57.57,0,0,0,.212-.491.69.69,0,0,0-.2-.557,1.039,1.039,0,0,0-.664-.166h-.285v1.37Z" transform="translate(-92.511 -273.398)" fill="#fff"/>
        <path id="Path_86" data-name="Path 86" d="M143.481,278.734l1.8-5.211h1.78l1.8,5.211h-1.413l-.263-.933h-2.018l-.271.933Zm1.99-1.947h1.413l-.53-1.719q-.025-.078-.068-.253l-.11-.449q-.046.192-.091.367t-.091.335Z" transform="translate(-134.97 -273.398)" fill="#fff"/>
        <path id="Path_87" data-name="Path 87" d="M210.8,278.733v-5.211h1.37l1.969,2.68a3.778,3.778,0,0,1,.187.329q.13.247.287.589-.043-.324-.062-.577t-.02-.449v-2.574h1.363v5.211h-1.363l-1.969-2.691a3.006,3.006,0,0,1-.19-.329q-.13-.248-.283-.582.043.328.062.58t.02.449v2.574Z" transform="translate(-196.407 -273.398)" fill="#fff"/>
        <path id="Path_88" data-name="Path 88" d="M277.89,275.749a2.574,2.574,0,0,0,.625.537,1.218,1.218,0,0,0,.614.178.706.706,0,0,0,.468-.153.484.484,0,0,0,.183-.388.508.508,0,0,0-.158-.4,2.007,2.007,0,0,0-.717-.29,2.339,2.339,0,0,1-1.082-.537,1.258,1.258,0,0,1-.317-.908,1.6,1.6,0,0,1,.5-1.219,1.813,1.813,0,0,1,1.3-.472,2.831,2.831,0,0,1,.817.116,2.642,2.642,0,0,1,.731.351l-.445,1.022a1.866,1.866,0,0,0-.5-.311,1.313,1.313,0,0,0-.5-.105.666.666,0,0,0-.416.123.38.38,0,0,0-.16.315.387.387,0,0,0,.141.313,1.521,1.521,0,0,0,.543.224l.064.018a2.662,2.662,0,0,1,1.143.516,1.275,1.275,0,0,1,.281.461,1.76,1.76,0,0,1,.1.6,1.73,1.73,0,0,1-.545,1.333,2.054,2.054,0,0,1-1.452.5,2.568,2.568,0,0,1-.991-.185,2.806,2.806,0,0,1-.86-.58Z" transform="translate(-257.059 -272.097)" fill="#fff"/>
        <path id="Path_89" data-name="Path 89" d="M330.458,278.734v-5.211h3.193v1.143h-1.808v.9h1.705v1.118h-1.705v2.047h-1.385Z" transform="translate(-305.622 -273.398)" fill="#fff"/>
        <path id="Path_90" data-name="Path 90" d="M375.878,278.734v-5.211h3.193v1.143h-1.808v.9h1.705v1.118h-1.705v.879h1.808v1.168h-3.193Z" transform="translate(-347.077 -273.398)" fill="#fff"/>
        <path id="Path_91" data-name="Path 91" d="M423.213,278.734v-5.211H424.7a6.192,6.192,0,0,1,1.216.08,1.552,1.552,0,0,1,.593.269,1.405,1.405,0,0,1,.433.545,1.736,1.736,0,0,1,.151.73,1.549,1.549,0,0,1-.3.984,1.45,1.45,0,0,1-.867.5l1.42,2.1H425.74l-1.2-2.04v2.04Zm1.331-2.748h.264a1.139,1.139,0,0,0,.671-.157.57.57,0,0,0,.212-.491.69.69,0,0,0-.2-.557,1.039,1.039,0,0,0-.664-.166h-.285Z" transform="translate(-390.279 -273.398)" fill="#fff"/>
      </g>
      <g id="Group_19" data-name="Group 19" transform="translate(9.215 0.018)">
        <path id="Path_92" data-name="Path 92" d="M145.31,190.064v-6.949h1.9a11.93,11.93,0,0,1,1.645.076,2.493,2.493,0,0,1,.8.261,1.479,1.479,0,0,1,.586.572,1.659,1.659,0,0,1,.2.828,1.392,1.392,0,0,1-.3.942,1.9,1.9,0,0,1-.961.529,1.663,1.663,0,0,1,1.158.52,1.776,1.776,0,0,1,.418,1.236,1.978,1.978,0,0,1-.235.978,1.623,1.623,0,0,1-.672.655,2.761,2.761,0,0,1-.878.271,12.582,12.582,0,0,1-1.709.081h-1.96Zm1.756-4.172h.38a2.077,2.077,0,0,0,.963-.154.569.569,0,0,0,.261-.534.609.609,0,0,0-.244-.553,1.931,1.931,0,0,0-.952-.159h-.408Zm0,2.753h.664a1.964,1.964,0,0,0,.954-.169.6.6,0,0,0,.28-.562.682.682,0,0,0-.256-.61,1.826,1.826,0,0,0-.949-.173h-.693v1.514Z" transform="translate(-145.31 -183.115)" fill="#fff"/>
        <path id="Path_93" data-name="Path 93" d="M211.468,190.064l2.4-6.949h2.373l2.4,6.949h-1.884l-.351-1.244h-2.691l-.361,1.244Zm2.653-2.6h1.884l-.707-2.292q-.033-.1-.09-.337l-.147-.6q-.062.256-.121.489t-.121.446Z" transform="translate(-205.692 -183.115)" fill="#fff"/>
        <path id="Path_94" data-name="Path 94" d="M301.22,190.064v-6.949h1.827l2.625,3.574a5.04,5.04,0,0,1,.249.439q.173.33.382.786-.057-.432-.083-.769t-.026-.6v-3.432h1.818v6.949h-1.818l-2.625-3.588a3.986,3.986,0,0,1-.254-.439q-.173-.33-.377-.776.057.437.083.774t.026.6v3.432Z" transform="translate(-287.608 -183.115)" fill="#fff"/>
        <path id="Path_95" data-name="Path 95" d="M396.08,190.064v-6.949h1.875v3.156l2.2-3.156h2.207l-2.568,3.389,2.791,3.56h-2.364l-2.264-3.118v3.118H396.08Z" transform="translate(-374.186 -183.115)" fill="#fff"/>
      </g>
      <rect id="Rectangle_13" data-name="Rectangle 13" width="7.695" height="1.377" fill="#fff"/>
      <rect id="Rectangle_14" data-name="Rectangle 14" width="7.695" height="1.377" transform="translate(0 2.673)" fill="#fff"/>
      <rect id="Rectangle_15" data-name="Rectangle 15" width="7.695" height="1.377" transform="translate(0 5.589)" fill="#fff"/>
    </g>
  </g>
</svg>
