<svg xmlns="http://www.w3.org/2000/svg" width="44.701" height="27.777" viewBox="0 0 44.701 27.777">
  <g id="_255759_bitcoin_card_cash_checkout_online_shopping_icon" data-name="255759_bitcoin_card_cash_checkout_online shopping_icon" transform="translate(0)" opacity="0.98">
    <g id="Group_10" data-name="Group 10" transform="translate(0 0)">
      <path id="Path_73" data-name="Path 73" d="M42.07,98.135a2.2,2.2,0,0,1,2.194,2.194v22.517a2.2,2.2,0,0,1-2.194,2.194H2.63a2.2,2.2,0,0,1-2.194-2.194V100.328A2.2,2.2,0,0,1,2.63,98.135H42.07m0-.437H2.63A2.63,2.63,0,0,0,0,100.328v22.517a2.63,2.63,0,0,0,2.63,2.63H42.07a2.63,2.63,0,0,0,2.63-2.63V100.328a2.63,2.63,0,0,0-2.63-2.63Z" transform="translate(0 -97.698)" fill="#fff"/>
    </g>
    <g id="Group_16" data-name="Group 16" transform="translate(3.559 9.879)">
      <g id="Group_14" data-name="Group 14">
        <g id="Group_13" data-name="Group 13">
          <path id="Path_74" data-name="Path 74" d="M48.533,215.743a3.941,3.941,0,1,1-2.871-4.778A3.941,3.941,0,0,1,48.533,215.743Z" transform="translate(-40.767 -210.847)" fill="#fff"/>
          <g id="Group_12" data-name="Group 12" transform="translate(1.917 1.374)">
            <g id="Group_11" data-name="Group 11">
              <path id="Path_75" data-name="Path 75" d="M66.49,228.587c.078-.525-.321-.807-.867-.995l.177-.711-.433-.108-.173.692c-.114-.028-.23-.055-.347-.082l.174-.7-.432-.108-.177.71c-.094-.021-.186-.043-.276-.065v0l-.6-.149-.115.462s.321.074.314.078a.23.23,0,0,1,.2.252l-.2.809a.359.359,0,0,1,.045.014l-.046-.011-.283,1.134a.157.157,0,0,1-.2.1c0,.006-.314-.078-.314-.078l-.215.5.563.14.308.08-.179.719.432.108.177-.711c.118.032.233.062.345.089l-.177.708.433.108.179-.717c.738.14,1.292.083,1.526-.584a.759.759,0,0,0-.4-1.049A.69.69,0,0,0,66.49,228.587Zm-.988,1.386c-.134.537-1.038.247-1.331.174l.237-.952C64.7,229.268,65.641,229.413,65.5,229.973Zm.134-1.394c-.122.489-.875.24-1.119.179l.215-.864C64.976,227.956,65.762,228.07,65.635,228.579Z" transform="translate(-62.728 -226.58)" fill="#fff"/>
            </g>
          </g>
        </g>
      </g>
      <g id="Group_15" data-name="Group 15" transform="translate(8.07 0.002)">
        <path id="Path_76" data-name="Path 76" d="M136.682,213.253a1.88,1.88,0,0,1,.828.17,1.668,1.668,0,0,1,.58.459,1.93,1.93,0,0,1,.339.679,3.1,3.1,0,0,1,.109.838,3.413,3.413,0,0,1-.948,2.37,3.264,3.264,0,0,1-1.038.718,3.168,3.168,0,0,1-1.3.265l-.315,0a4.613,4.613,0,0,1-.513-.045,6.027,6.027,0,0,1-.614-.12,3.083,3.083,0,0,1-.614-.219l1.726-7.253,1.546-.24-.618,2.574a2.408,2.408,0,0,1,.4-.14A1.764,1.764,0,0,1,136.682,213.253Zm-1.3,4.271a1.354,1.354,0,0,0,.658-.17,1.73,1.73,0,0,0,.535-.454,2.289,2.289,0,0,0,.354-.644,2.195,2.195,0,0,0,.13-.749,1.473,1.473,0,0,0-.16-.748.628.628,0,0,0-.589-.269,1.844,1.844,0,0,0-.364.05.908.908,0,0,0-.4.21l-.658,2.733.1.02a.806.806,0,0,0,.094.015,1.078,1.078,0,0,0,.12.006Z" transform="translate(-133.2 -210.869)" fill="#fff"/>
        <path id="Path_77" data-name="Path 77" d="M197.266,219.652h-1.477l1.247-5.248h1.487Zm.719-5.887a.916.916,0,0,1-.559-.184.652.652,0,0,1-.25-.564.94.94,0,0,1,.084-.394,1.054,1.054,0,0,1,.225-.319,1.107,1.107,0,0,1,.324-.215.99.99,0,0,1,.395-.079.917.917,0,0,1,.558.184.658.658,0,0,1,.249.564.931.931,0,0,1-.085.394,1.039,1.039,0,0,1-.224.319,1.089,1.089,0,0,1-.324.214A.97.97,0,0,1,197.984,213.765Z" transform="translate(-190.324 -211.909)" fill="#fff"/>
        <path id="Path_78" data-name="Path 78" d="M230.213,221.963l1.547-.24-.38,1.547h1.657l-.3,1.217h-1.647l-.439,1.836a2.078,2.078,0,0,0-.07.429.783.783,0,0,0,.05.345.433.433,0,0,0,.215.224.98.98,0,0,0,.444.081,2.364,2.364,0,0,0,.465-.045,3.3,3.3,0,0,0,.453-.125l.11,1.138a5.291,5.291,0,0,1-.648.189,3.734,3.734,0,0,1-.828.08,2.293,2.293,0,0,1-1.068-.2,1.187,1.187,0,0,1-.539-.56,1.776,1.776,0,0,1-.14-.813,5.269,5.269,0,0,1,.14-.968Z" transform="translate(-220.721 -220.775)" fill="#fff"/>
        <path id="Path_79" data-name="Path 79" d="M273.514,241.124a3.685,3.685,0,0,1,.219-1.277,3.138,3.138,0,0,1,.629-1.048,2.945,2.945,0,0,1,.993-.708,3.174,3.174,0,0,1,1.3-.259,3.439,3.439,0,0,1,.8.085,3.25,3.25,0,0,1,.644.224l-.509,1.158c-.133-.054-.271-.1-.414-.145a1.8,1.8,0,0,0-.524-.065,1.463,1.463,0,0,0-1.172.509,2.039,2.039,0,0,0-.434,1.367,1.406,1.406,0,0,0,.22.823.92.92,0,0,0,.808.314,2.593,2.593,0,0,0,.559-.06,2.752,2.752,0,0,0,.479-.15l.11,1.187a5.324,5.324,0,0,1-.619.2,3.437,3.437,0,0,1-.809.084,2.729,2.729,0,0,1-1.048-.179,1.994,1.994,0,0,1-.708-.484,1.825,1.825,0,0,1-.4-.714A2.944,2.944,0,0,1,273.514,241.124Z" transform="translate(-261.263 -235.477)" fill="#fff"/>
        <path id="Path_80" data-name="Path 80" d="M326.961,243.359a2.415,2.415,0,0,1-.918-.16,1.7,1.7,0,0,1-.643-.449,1.941,1.941,0,0,1-.384-.683,2.76,2.76,0,0,1-.129-.872,3.853,3.853,0,0,1,.194-1.2,3.39,3.39,0,0,1,.574-1.077,3.063,3.063,0,0,1,.927-.784,2.552,2.552,0,0,1,1.256-.3,2.426,2.426,0,0,1,.914.16,1.707,1.707,0,0,1,.648.449,1.949,1.949,0,0,1,.383.684,2.767,2.767,0,0,1,.13.873,3.977,3.977,0,0,1-.189,1.2,3.458,3.458,0,0,1-.559,1.077,2.928,2.928,0,0,1-.923.783A2.622,2.622,0,0,1,326.961,243.359Zm.738-4.27a.933.933,0,0,0-.578.189,1.633,1.633,0,0,0-.419.479,2.364,2.364,0,0,0-.255.634,2.729,2.729,0,0,0-.084.653,1.592,1.592,0,0,0,.159.779.61.61,0,0,0,.579.279.928.928,0,0,0,.579-.19,1.638,1.638,0,0,0,.419-.479,2.371,2.371,0,0,0,.255-.634,2.769,2.769,0,0,0,.084-.653,1.579,1.579,0,0,0-.16-.778A.61.61,0,0,0,327.7,239.089Z" transform="translate(-308.151 -235.477)" fill="#fff"/>
        <path id="Path_81" data-name="Path 81" d="M385.453,219.652h-1.478l1.247-5.248h1.488Zm.717-5.887a.915.915,0,0,1-.558-.184.654.654,0,0,1-.25-.564.936.936,0,0,1,.085-.394,1.042,1.042,0,0,1,.225-.319,1.1,1.1,0,0,1,.324-.215.984.984,0,0,1,.393-.079.917.917,0,0,1,.559.184.658.658,0,0,1,.25.564.947.947,0,0,1-.086.394,1.035,1.035,0,0,1-.224.319,1.1,1.1,0,0,1-.324.214A.974.974,0,0,1,386.17,213.765Z" transform="translate(-362.08 -211.909)" fill="#fff"/>
        <path id="Path_82" data-name="Path 82" d="M414.849,238.419c.112-.033.237-.072.373-.115s.289-.083.46-.119a5.535,5.535,0,0,1,.568-.09,6.376,6.376,0,0,1,.713-.035,1.782,1.782,0,0,1,1.612.679,2.316,2.316,0,0,1,.155,1.856l-.679,2.834h-1.487l.658-2.774c.04-.173.072-.341.1-.5a1.193,1.193,0,0,0-.005-.429.513.513,0,0,0-.184-.3.714.714,0,0,0-.444-.115,3,3,0,0,0-.588.061l-.968,4.06h-1.487Z" transform="translate(-389.156 -235.685)" fill="#fff"/>
      </g>
    </g>
  </g>
</svg>
