<svg xmlns="http://www.w3.org/2000/svg" width="44.701" height="27.778" viewBox="0 0 44.701 27.778">
  <g id="_213734_card_cash_checkout_mastercard_online_shopping_icon" data-name="213734_card_cash_checkout_mastercard_online shopping_icon" opacity="0.98">
    <g id="Group_8" data-name="Group 8" transform="translate(0 0)">
      <path id="Path_51" data-name="Path 51" d="M42.935,98.635a2.2,2.2,0,0,1,2.194,2.194v22.517a2.2,2.2,0,0,1-2.194,2.194H3.494A2.2,2.2,0,0,1,1.3,123.345V100.828a2.2,2.2,0,0,1,2.194-2.194h39.44m0-.437H3.494a2.63,2.63,0,0,0-2.63,2.63v22.517a2.63,2.63,0,0,0,2.63,2.63h39.44a2.63,2.63,0,0,0,2.63-2.63V100.828a2.63,2.63,0,0,0-2.63-2.63Z" transform="translate(-0.864 -98.198)" fill="#fff"/>
    </g>
    <g id="Group_9" data-name="Group 9" transform="translate(7.966 1.822)">
      <path id="Path_52" data-name="Path 52" d="M218.15,145.9a8.929,8.929,0,0,0,6.06,2.358,9.1,9.1,0,0,0,0-18.195,8.928,8.928,0,0,0-6.06,2.358,9.1,9.1,0,0,0,0,13.478Z" transform="translate(-203.032 -130.063)" fill="#fff" fill-rule="evenodd"/>
      <path id="Path_53" data-name="Path 53" d="M60.712,138.2c-.031-.328-.094-.64-.156-.968H55.027a9.47,9.47,0,0,1,.25-.953H60.29c-.11-.328-.234-.656-.375-.968H55.667c.156-.328.328-.656.515-.968h3.2a8.172,8.172,0,0,0-.687-.953H56.87a9.032,9.032,0,0,1,.921-.968,9.1,9.1,0,1,0,0,13.478h0a8.711,8.711,0,0,0,.906-.953H56.87a10.775,10.775,0,0,1-.687-.968h3.2a7.249,7.249,0,0,0,.531-.968H55.667a10.112,10.112,0,0,1-.391-.953H60.29a9.826,9.826,0,0,0,.265-.968,8.72,8.72,0,0,0,.2-1.921c0-.328-.016-.656-.047-.968Z" transform="translate(-42.673 -130.065)" fill="#fff" fill-rule="evenodd"/>
      <path id="Path_63" data-name="Path 63" d="M298.979,226.642l-.168.978a1.838,1.838,0,0,0-.856-.244c-.718,0-1.222.7-1.222,1.7,0,.687.336,1.1.9,1.1a1.869,1.869,0,0,0,.81-.229l-.168,1.024a3.181,3.181,0,0,1-.84.138c-1.039,0-1.681-.749-1.681-1.956,0-1.6.886-2.734,2.154-2.734a1.883,1.883,0,0,1,.443.046l.382.092c.122.046.153.061.245.092Z" transform="translate(-277.876 -206.476)" fill="#fff" fill-rule="evenodd"/>
      <path id="Path_64" data-name="Path 64" d="M267.159,239.509h-.092c-.321,0-.5.153-.795.6l.092-.565h-.871l-.6,3.667h.962c.351-2.246.443-2.628.9-2.628h.061a3.839,3.839,0,0,1,.367-1.054l-.03-.015Z" transform="translate(-249.143 -218.671)" fill="#fff" fill-rule="evenodd"/>
      <path id="Path_65" data-name="Path 65" d="M197.749,236.131a1.981,1.981,0,0,1-.687.122.707.707,0,0,1-.764-.809,2.511,2.511,0,0,1,.031-.321l.061-.367.046-.29.413-2.505h.947l-.107.55h.489l-.122.9h-.489l-.259,1.528a.568.568,0,0,0-.015.153c0,.183.092.26.321.26a.637.637,0,0,0,.26-.031l-.122.809Z" transform="translate(-185.263 -211.641)" fill="#fff" fill-rule="evenodd"/>
      <path id="Path_66" data-name="Path 66" d="M158.924,240.079a1.07,1.07,0,0,0,.718,1.024c.4.183.458.244.458.4,0,.229-.168.336-.55.336a2.858,2.858,0,0,1-.855-.137l-.138.84.046.015.168.031a1,1,0,0,0,.26.031,3.54,3.54,0,0,0,.519.03c1.008,0,1.482-.382,1.482-1.222a1.016,1.016,0,0,0-.672-1.024c-.412-.183-.458-.229-.458-.4,0-.2.168-.29.474-.29a5.97,5.97,0,0,1,.687.046l.137-.84a5.537,5.537,0,0,0-.84-.076c-1.069,0-1.451.565-1.436,1.237Z" transform="translate(-150.119 -218.049)" fill="#fff" fill-rule="evenodd"/>
      <path id="Path_67" data-name="Path 67" d="M409.657,232.248h-.9l.046-.352a1.143,1.143,0,0,1-.886.4c-.7,0-1.161-.6-1.161-1.512,0-1.222.718-2.261,1.558-2.261a1.1,1.1,0,0,1,.917.5l.214-1.284h.947l-.733,4.507Zm-1.405-.855c.443,0,.749-.52.749-1.237,0-.474-.168-.718-.5-.718-.428,0-.749.5-.749,1.222q0,.734.5.734Z" transform="translate(-381.237 -207.713)" fill="#fff" fill-rule="evenodd"/>
      <path id="Path_68" data-name="Path 68" d="M224.663,242.3a3.127,3.127,0,0,1-.993.153,1.455,1.455,0,0,1-1.619-1.65c0-1.253.7-2.185,1.665-2.185a1.227,1.227,0,0,1,1.3,1.329,3.7,3.7,0,0,1-.122.917H223a.3.3,0,0,0-.015.107c0,.428.29.642.84.642a2.1,2.1,0,0,0,.993-.229l-.153.917Zm-.535-2.185v-.183a.423.423,0,0,0-.458-.474c-.305,0-.519.229-.611.657Z" transform="translate(-209.244 -217.843)" fill="#fff" fill-rule="evenodd"/>
      <path id="Path_69" data-name="Path 69" d="M58.94,232.248h-.947l.55-3.468-1.237,3.468h-.657l-.076-3.437-.581,3.437h-.886l.749-4.507h1.375l.046,2.8.917-2.8h1.5Z" transform="translate(-53.787 -207.713)" fill="#fff" fill-rule="evenodd"/>
      <path id="Path_70" data-name="Path 70" d="M118.778,240.949c-.092,0-.137-.016-.214-.016-.535,0-.81.2-.81.565a.322.322,0,0,0,.336.367c.4,0,.672-.367.687-.917Zm.7,1.635h-.794l.015-.382a1.19,1.19,0,0,1-1.008.443.887.887,0,0,1-.871-.993c0-.9.611-1.421,1.68-1.421.107,0,.245.015.4.03a.77.77,0,0,0,.031-.229c0-.244-.168-.336-.611-.336a3.152,3.152,0,0,0-.794.092l-.137.046-.092.015.137-.825a3.842,3.842,0,0,1,1.146-.183c.825,0,1.268.367,1.268,1.07a4.629,4.629,0,0,1-.076.733l-.214,1.3-.031.229-.015.183-.015.138-.015.092Z" transform="translate(-111.257 -218.049)" fill="#fff" fill-rule="evenodd"/>
      <path id="Path_71" data-name="Path 71" d="M338.56,240.949c-.107,0-.153-.016-.214-.016-.55,0-.825.2-.825.565a.333.333,0,0,0,.351.367c.382,0,.672-.367.687-.917Zm.7,1.635h-.794l.015-.382a1.19,1.19,0,0,1-1.008.443.887.887,0,0,1-.871-.993c0-.9.611-1.421,1.68-1.421.107,0,.244.015.382.03a.969.969,0,0,0,.046-.229c0-.244-.168-.336-.611-.336a3.281,3.281,0,0,0-.81.092l-.122.046-.092.015.137-.825a3.842,3.842,0,0,1,1.146-.183c.825,0,1.253.367,1.253,1.07a3.271,3.271,0,0,1-.077.733l-.2,1.3-.031.229-.03.183-.015.138v.092Z" transform="translate(-315.915 -218.049)" fill="#fff" fill-rule="evenodd"/>
      <path id="Path_72" data-name="Path 72" d="M382.138,239.509h-.092c-.321,0-.5.153-.794.6l.092-.565h-.871l-.581,3.667h.947c.351-2.246.443-2.628.9-2.628h.061a3.842,3.842,0,0,1,.367-1.054l-.031-.015Z" transform="translate(-356.223 -218.671)" fill="#fff" fill-rule="evenodd"/>
    </g>
  </g>
</svg>
