<svg xmlns="http://www.w3.org/2000/svg" width="44.701" height="27.777" viewBox="0 0 44.701 27.777">
  <g id="_213733_card_cash_checkout_online_shopping_payment_method_icon" data-name="213733_card_cash_checkout_online shopping_payment method_icon" opacity="0.98">
    <g id="Group_4" data-name="Group 4" transform="translate(0 0)">
      <path id="Path_36" data-name="Path 36" d="M42.087,98.135a2.2,2.2,0,0,1,2.194,2.194v22.517a2.2,2.2,0,0,1-2.194,2.194H2.647a2.2,2.2,0,0,1-2.194-2.194V100.328a2.2,2.2,0,0,1,2.194-2.194h39.44m0-.437H2.647a2.63,2.63,0,0,0-2.63,2.63v22.517a2.63,2.63,0,0,0,2.63,2.63h39.44a2.63,2.63,0,0,0,2.63-2.63V100.328a2.63,2.63,0,0,0-2.63-2.63Z" transform="translate(-0.017 -97.698)" fill="#fff"/>
    </g>
    <g id="Group_5" data-name="Group 5" transform="translate(3.858 9.063)">
      <path id="Path_37" data-name="Path 37" d="M344.013,219.57a10.04,10.04,0,0,0-2.255.364l-.176,1.431a6.142,6.142,0,0,1,1.927-.409c.745-.023,1.183.136,1.029.772-2.212,0-3.7.454-4.008,1.886-.438,2.454,2.256,2.385,3.329,1.318l-.132.591H345.7l.854-3.908C346.9,219.956,345.392,219.547,344.013,219.57Zm.131,4a.987.987,0,0,1-1.029.773c-.438.022-.832-.364-.548-.818.219-.386.833-.477,1.2-.477h.482C344.21,223.228,344.187,223.387,344.144,223.568Z" transform="translate(-314.615 -217.991)" fill="#fff"/>
      <path id="Path_38" data-name="Path 38" d="M412.28,201.88l-1.631,7.5h2l1.651-7.5Z" transform="translate(-378.655 -201.847)" fill="#fff"/>
      <path id="Path_39" data-name="Path 39" d="M268.665,202.144H265l-1.624,7.475H265.5l.549-2.476h1.515a3.006,3.006,0,0,0,3.051-2.454A1.96,1.96,0,0,0,268.665,202.144Zm-.065,2.544a1.369,1.369,0,0,1-1.252,1.022h-.988l.439-2.045h1.053A.769.769,0,0,1,268.6,204.688Z" transform="translate(-244.24 -202.088)" fill="#fff"/>
      <path id="Path_40" data-name="Path 40" d="M124.813,219.57a9.387,9.387,0,0,0-2.207.364l-.173,1.431a5.7,5.7,0,0,1,1.882-.409c.736-.023,1.169.136,1.039.772-2.185,0-3.656.454-3.959,1.886-.433,2.454,2.228,2.385,3.267,1.318l-.13.591H126.5l.844-3.908C127.69,219.956,126.176,219.547,124.813,219.57Zm.151,4a1,1,0,0,1-1.038.773.526.526,0,0,1-.519-.818,1.382,1.382,0,0,1,1.168-.477h.5A4.549,4.549,0,0,0,124.964,223.568Z" transform="translate(-114.613 -217.991)" fill="#fff"/>
      <path id="Path_41" data-name="Path 41" d="M193.217,220.809h1.969l.318,3.481,1.926-3.481h2.031l-4.678,8.331h-2.2l1.439-2.449Z" transform="translate(-179.628 -219.123)" fill="#fff"/>
      <path id="Path_42" data-name="Path 42" d="M49.512,202.144H45.836l-1.628,7.475h2.157l.528-2.476h1.54a3,3,0,0,0,3.037-2.454A1.953,1.953,0,0,0,49.512,202.144Zm-.066,2.544a1.345,1.345,0,0,1-1.232,1.022H47.2l.462-2.045h1.056A.757.757,0,0,1,49.446,204.688Z" transform="translate(-44.208 -202.088)" fill="#fff"/>
      <path id="Path_43" data-name="Path 43" d="M453.995,202.5v-.884h-.33V201.5h.794v.118h-.332v.884Z" transform="translate(-417.916 -201.5)" fill="#fff"/>
      <path id="Path_44" data-name="Path 44" d="M464.27,202.5v-1h.2l.238.709q.033.1.048.148.017-.055.053-.161l.241-.7h.178v1H465.1v-.839l-.293.839h-.119l-.29-.853v.853Z" transform="translate(-427.595 -201.5)" fill="#fff"/>
    </g>
  </g>
</svg>
