<svg xmlns="http://www.w3.org/2000/svg" width="44.701" height="27.778" viewBox="0 0 44.701 27.778">
  <g id="_213724_card_cash_checkout_online_shopping_payment_method_icon" data-name="213724_card_cash_checkout_online shopping_payment method_icon" transform="translate(0)" opacity="0.98">
    <g id="Group_6" data-name="Group 6" transform="translate(0 0)">
      <path id="Path_45" data-name="Path 45" d="M42.935,98.635a2.2,2.2,0,0,1,2.194,2.194v22.517a2.2,2.2,0,0,1-2.194,2.194H3.494A2.2,2.2,0,0,1,1.3,123.345V100.828a2.2,2.2,0,0,1,2.194-2.194h39.44m0-.437H3.494a2.63,2.63,0,0,0-2.63,2.63v22.517a2.63,2.63,0,0,0,2.63,2.63h39.44a2.63,2.63,0,0,0,2.63-2.63V100.828a2.63,2.63,0,0,0-2.63-2.63Z" transform="translate(-0.864 -98.198)" fill="#fff"/>
    </g>
    <g id="Group_7" data-name="Group 7" transform="translate(3.43 8.173)">
      <path id="Path_46" data-name="Path 46" d="M190.88,205.117l1.89-11.1H195.8l-1.894,11.1Z" transform="translate(-177.72 -193.829)" fill="#fff"/>
      <path id="Path_47" data-name="Path 47" d="M256.277,192.279a7.805,7.805,0,0,0-2.711-.466c-2.988,0-5.093,1.5-5.112,3.662-.017,1.594,1.5,2.484,2.65,3.014,1.178.544,1.574.891,1.569,1.377-.008.744-.941,1.083-1.811,1.083a6.335,6.335,0,0,1-2.846-.582l-.389-.176-.425,2.484a9.562,9.562,0,0,0,3.369.591c3.18,0,5.242-1.487,5.266-3.791.012-1.261-.794-2.222-2.538-3.014-1.058-.514-1.706-.856-1.7-1.376,0-.461.548-.954,1.733-.954a5.563,5.563,0,0,1,2.262.425l.272.128.409-2.4Z" transform="translate(-229.125 -191.813)" fill="#fff"/>
      <path id="Path_48" data-name="Path 48" d="M352.032,194.144h-2.337a1.5,1.5,0,0,0-1.584.92l-4.491,10.169H346.8s.518-1.367.636-1.668l3.873.005c.09.388.367,1.662.367,1.662h2.807l-2.448-11.089ZM348.3,201.3c.25-.64,1.2-3.1,1.2-3.1-.017.03.249-.643.4-1.059l.2.957s.579,2.649.7,3.2Z" transform="translate(-317.125 -193.94)" fill="#fff"/>
      <path id="Path_49" data-name="Path 49" d="M83.785,194.114l-2.961,7.567-.316-1.537a8.648,8.648,0,0,0-4.188-4.655l2.707,9.7,3.2,0,4.762-11.075Z" transform="translate(-73.162 -193.913)" fill="#fff"/>
      <path id="Path_50" data-name="Path 50" d="M45.071,194.037H40.192l-.037.231c3.794.919,6.3,3.138,7.346,5.806l-1.059-5.1a1.266,1.266,0,0,0-1.371-.937Z" transform="translate(-40.155 -193.843)" fill="#fff"/>
    </g>
  </g>
</svg>
